# xmcd CD database file
#
# Track frame offsets:
#	150
#	18381
#	41798
#	61704
#	86504
#	104102
#	128169
#	148872
#	171548
#	189687
#	210040
#	233039
#
# Disc length: 3487 seconds
#
# Revision: 0
# Processed by: cddbd v1.4PL0 Copyright (c) Steve Scherf et al.
# Submitted via: Feurio! 1.66 - http://www.feurio.com
#
DISCID=a80d9d0c
DTITLE=LUIS MIGUEL DEL AMARGUE - GRANDES ÉXITOS DISCO 2
DYEAR=1900
DGENRE=
TTITLE0=TE ECHO DE MENOS
TTITLE1=HOJA EN BLANCO
TTITLE2=NO TE PUEDO PERDONAR
TTITLE3=DAME OTRA NOCHE
TTITLE4=YO ME ENAMORÉ
TTITLE5=LUISA MARÍA
TTITLE6=AYÚDAME A VIVIR
TTITLE7=TIEMPO PARA AMAR
TTITLE8=O ME VOY O TE VAS
TTITLE9=ME VAS A EXTRAÑAR
TTITLE10=POR ESO CAMINO
TTITLE11=SIN MIEDO A NADA
EXTD=
EXTT0=
EXTT1=
EXTT2=
EXTT3=
EXTT4=
EXTT5=
EXTT6=
EXTT7=
EXTT8=
EXTT9=
EXTT10=
EXTT11=
PLAYORDER=
